<svg width="40" height="40" viewBox="0 0 40 40" fill="none" xmlns="http://www.w3.org/2000/svg">
<g clip-path="url(#clip0_29_153)">
<path d="M10 16.6667C8.16667 16.6667 6.66667 18.1667 6.66667 20.0001C6.66667 21.8334 8.16667 23.3334 10 23.3334C11.8333 23.3334 13.3333 21.8334 13.3333 20.0001C13.3333 18.1667 11.8333 16.6667 10 16.6667ZM30 16.6667C28.1667 16.6667 26.6667 18.1667 26.6667 20.0001C26.6667 21.8334 28.1667 23.3334 30 23.3334C31.8333 23.3334 33.3333 21.8334 33.3333 20.0001C33.3333 18.1667 31.8333 16.6667 30 16.6667ZM20 16.6667C18.1667 16.6667 16.6667 18.1667 16.6667 20.0001C16.6667 21.8334 18.1667 23.3334 20 23.3334C21.8333 23.3334 23.3333 21.8334 23.3333 20.0001C23.3333 18.1667 21.8333 16.6667 20 16.6667Z" fill="#202020"/>
</g>
<defs>
<clipPath id="clip0_29_153">
<rect width="40" height="40" fill="white"/>
</clipPath>
</defs>
</svg>
