<svg width="26" height="34" viewBox="0 0 26 34" fill="none" xmlns="http://www.w3.org/2000/svg">
<path d="M22.5 11.6666H20.9167V8.49992C20.9167 4.12992 17.37 0.583252 13 0.583252C8.63001 0.583252 5.08334 4.12992 5.08334 8.49992V11.6666H3.50001C1.75834 11.6666 0.333344 13.0916 0.333344 14.8333V30.6666C0.333344 32.4083 1.75834 33.8333 3.50001 33.8333H22.5C24.2417 33.8333 25.6667 32.4083 25.6667 30.6666V14.8333C25.6667 13.0916 24.2417 11.6666 22.5 11.6666ZM13 25.9166C11.2583 25.9166 9.83334 24.4916 9.83334 22.7499C9.83334 21.0083 11.2583 19.5833 13 19.5833C14.7417 19.5833 16.1667 21.0083 16.1667 22.7499C16.1667 24.4916 14.7417 25.9166 13 25.9166ZM17.9083 11.6666H8.09168V8.49992C8.09168 5.79242 10.2925 3.59159 13 3.59159C15.7075 3.59159 17.9083 5.79242 17.9083 8.49992V11.6666Z" fill="black" fill-opacity="0.44"/>
</svg>
