<svg width="37" height="37" viewBox="0 0 42 42" fill="none" xmlns="http://www.w3.org/2000/svg">
<g clip-path="url(#clip0_29_262)">
<path d="M22.75 14C22.75 10.1325 19.6175 7 15.75 7C11.8825 7 8.75 10.1325 8.75 14C8.75 17.8675 11.8825 21 15.75 21C19.6175 21 22.75 17.8675 22.75 14ZM26.25 17.5V21H31.5V26.25H35V21H40.25V17.5H35V12.25H31.5V17.5H26.25ZM1.75 31.5V35H29.75V31.5C29.75 26.845 20.4225 24.5 15.75 24.5C11.0775 24.5 1.75 26.845 1.75 31.5Z" fill="white"/>
</g>
<defs>
<clipPath id="clip0_29_262">
<rect width="42" height="42" fill="white"/>
</clipPath>
</defs>
</svg>
