<svg width="45" height="45" viewBox="0 0 65 65" fill="none" xmlns="http://www.w3.org/2000/svg">
<path d="M32.5 0C14.56 0 0 14.56 0 32.5C0 50.44 14.56 65 32.5 65C50.44 65 65 50.44 65 32.5C65 14.56 50.44 0 32.5 0ZM35.75 55.25H29.25V48.75H35.75V55.25ZM42.4775 30.0625L39.5525 33.0525C37.2125 35.425 35.75 37.375 35.75 42.25H29.25V40.625C29.25 37.05 30.7125 33.8 33.0525 31.4275L37.0825 27.3325C38.285 26.1625 39 24.5375 39 22.75C39 19.175 36.075 16.25 32.5 16.25C28.925 16.25 26 19.175 26 22.75H19.5C19.5 15.5675 25.3175 9.75 32.5 9.75C39.6825 9.75 45.5 15.5675 45.5 22.75C45.5 25.61 44.33 28.21 42.4775 30.0625Z" fill="#363636"/>
</svg>
