<svg width="49" height="45" viewBox="0 0 49 45" fill="none" xmlns="http://www.w3.org/2000/svg">
<path d="M0 44.5834H8.83333V18.0834H0V44.5834ZM48.5833 20.2917C48.5833 17.8626 46.5958 15.8751 44.1667 15.8751H30.2321L32.33 5.783L32.3962 5.07633C32.3962 4.17091 32.0208 3.33175 31.4246 2.7355L29.0837 0.416748L14.5529 14.9697C13.7358 15.7647 13.25 16.8688 13.25 18.0834V40.1667C13.25 42.5959 15.2375 44.5834 17.6667 44.5834H37.5417C39.3746 44.5834 40.9425 43.4792 41.605 41.8892L48.2742 26.3205C48.4729 25.8126 48.5833 25.2826 48.5833 24.7084V20.2917Z" fill="#current"/>
</svg>
