<svg width="38" height="39" viewBox="0 0 38 39" fill="none" xmlns="http://www.w3.org/2000/svg">
<path d="M27.1584 24.3994H25.442L24.8336 23.8127C26.9628 21.3359 28.2447 18.1204 28.2447 14.6224C28.2447 6.82247 21.9222 0.5 14.1224 0.5C6.32247 0.5 0 6.82247 0 14.6224C0 22.4222 6.32247 28.7447 14.1224 28.7447C17.6204 28.7447 20.8359 27.4628 23.3127 25.3336L23.8994 25.942V27.6584L34.7627 38.5L38 35.2627L27.1584 24.3994ZM14.1224 24.3994C8.71241 24.3994 4.34534 20.0323 4.34534 14.6224C4.34534 9.21241 8.71241 4.84534 14.1224 4.84534C19.5323 4.84534 23.8994 9.21241 23.8994 14.6224C23.8994 20.0323 19.5323 24.3994 14.1224 24.3994Z" fill="current"/>
</svg>
